<svg 
 xmlns="http://www.w3.org/2000/svg"
 xmlns:xlink="http://www.w3.org/1999/xlink"
 width="16px" height="18px">
<path fill-rule="evenodd"  fill="rgb(255, 255, 255)"
 d="M14.520,5.122 L12.811,5.122 L12.811,4.438 C12.811,4.267 12.726,4.095 12.640,3.925 L10.077,0.333 C9.906,0.163 9.650,-0.008 9.394,-0.008 L0.849,-0.008 C0.336,-0.008 -0.005,0.333 -0.005,0.847 L-0.005,13.672 C-0.005,14.185 0.336,14.527 0.849,14.527 L2.558,14.527 L2.558,16.237 C2.558,16.750 2.900,17.092 3.412,17.092 L14.520,17.092 C15.033,17.092 15.374,16.750 15.374,16.237 L15.375,5.977 C15.375,5.464 15.033,5.122 14.520,5.122 L14.520,5.122 ZM1.704,1.702 L8.966,1.702 L11.102,4.694 L11.102,12.818 L1.704,12.818 L1.704,1.702 ZM13.666,15.382 L4.267,15.382 L4.267,14.527 L11.957,14.527 C12.470,14.527 12.811,14.185 12.811,13.672 L12.811,6.832 L13.666,6.832 L13.666,15.382 Z"/>
</svg>
